<?xml version="1.0" encoding="utf-8"?>
<!-- Generator: Adobe Illustrator 25.4.1, SVG Export Plug-In . SVG Version: 6.00 Build 0)  -->
<svg version="1.1" id="Слой_1" xmlns="http://www.w3.org/2000/svg" xmlns:xlink="http://www.w3.org/1999/xlink" x="0px" y="0px"
	 viewBox="0 0 50 50" style="enable-background:new 0 0 50 50;" xml:space="preserve">
<style type="text/css">
	.st0{fill:none;stroke:#000000;stroke-linejoin:round;}
	.st1{fill:none;stroke:#000000;stroke-width:2;stroke-linejoin:round;}
	.st2{fill:none;stroke:#000000;stroke-width:0.5;}
</style>
<g>
	<path class="st0" d="M34.6,36.48c-0.39-0.79,0.94-1.85,2.36-2.32c1.42-0.47,2.95-0.59,3.54-0.59c1.57-1.18,4.25-3.9,2.36-5.32
		c-1.89-1.42-2.36-3.35-2.36-4.14c0.47-0.95-2.95-2.76-4.72-3.55c-0.94-0.47-1.18-3.35-1.18-4.73c-1.18,0.59-3.9,2.6-5.31,5.91
		c-0.98,0.99-3.11,5.81-3.11,5.81"/>
	<path class="st0" d="M34.6,36.48c-0.39-0.79,0.94-1.85,2.36-2.32c1.42-0.47,2.95-0.59,3.54-0.59c1.57-1.18,4.25-3.9,2.36-5.32
		c-1.89-1.42-2.36-3.35-2.36-4.14c0.47-0.95-2.95-2.76-4.72-3.55c-0.94-0.47-1.18-3.35-1.18-4.73c-1.18,0.59-3.9,2.6-5.31,5.91
		c-0.98,0.99-3.11,5.81-3.11,5.81"/>
	<path class="st0" d="M37.69,42.47l0.22-0.65l-7.65-1.53l-0.1,0.62 M37.69,42.47l4.29,0.88l-1.02,2.04l-3.97-0.83 M37.69,42.47
		l-0.28,0.84l-0.42,1.25 M36.99,44.57l-0.11,0.32l-7.14-1.53l0.05-0.29 M30.15,40.92l-22.84-4.7L6.8,38.26l22.99,4.8 M30.15,40.92
		l-0.36,2.14"/>
	<path class="st1" d="M40.45,42.85l2.04-2.55l-15.3-7.65c0.37-0.54,0.46-0.81,0.54-1.46c0.08-0.65,0.01-1.3-0.21-1.91
		s-0.59-1.16-1.07-1.6c-0.48-0.44-0.67-0.46-1.3-0.63l9.18-20.4c-3.5-1.69-7-2.33-10.87-1.92c-3.87,0.41-7.54,1.89-10.61,4.27
		c-3.07,2.38-5.42,5.57-6.78,9.21C4.72,21.85,4,26.29,4.76,30.1c0.81,0,1.68,0.28,2.01,0.41c0.73,0.31,1.37,0.79,1.88,1.39
		c0.51,0.6,0.87,1.32,1.06,2.09c0.19,0.77,0.19,1.57,0.02,2.34"/>
	<path class="st0" d="M21.71,31.46c-0.07-0.2-0.26-0.34-0.48-0.34h-1.68v-1.09h1.77c0.2,0,0.38-0.11,0.46-0.29
		c0.2-0.43,0.54-0.77,0.97-0.97c0.43-0.2,0.91-0.25,1.37-0.14c0.46,0.11,0.86,0.38,1.14,0.76c0.28,0.38,0.42,0.84,0.4,1.31
		c-0.02,0.47-0.21,0.92-0.53,1.27c-0.32,0.35-0.74,0.58-1.21,0.65c-0.47,0.07-0.94-0.02-1.35-0.27
		C22.11,32.08,21.85,31.85,21.71,31.46z"/>
	<path class="st2" d="M40.97,39.43c1.94-2.29,3.31-5,4.02-7.92c0.71-2.91,0.73-5.95,0.07-8.88s-2-5.66-3.9-7.98
		c-1.9-2.32-5.12-4.74-7.85-5.97"/>
</g>
</svg>
